solid OpenSCAD_Model
  facet normal 1 0 0
    outer loop
      vertex 30 28 3
      vertex 30 30 38
      vertex 30 28 38
    endloop
  endfacet
  facet normal 1 0 0
    outer loop
      vertex 30 30 38
      vertex 30 28 3
      vertex 30 30 1
    endloop
  endfacet
  facet normal 1 0 0
    outer loop
      vertex 30 0 1
      vertex 30 28 3
      vertex 30 0 3
    endloop
  endfacet
  facet normal 1 0 0
    outer loop
      vertex 30 28 3
      vertex 30 0 1
      vertex 30 30 1
    endloop
  endfacet
  facet normal -0 0 1
    outer loop
      vertex 0 30 38
      vertex 30 28 38
      vertex 30 30 38
    endloop
  endfacet
  facet normal 0 0 1
    outer loop
      vertex 30 28 38
      vertex 0 30 38
      vertex 0 28 38
    endloop
  endfacet
  facet normal -0 0 1
    outer loop
      vertex 0 28 3
      vertex 30 0 3
      vertex 30 28 3
    endloop
  endfacet
  facet normal 0 0 1
    outer loop
      vertex 30 0 3
      vertex 0 28 3
      vertex 0 0 3
    endloop
  endfacet
  facet normal -1 0 0
    outer loop
      vertex 0 30 1
      vertex 0 28 3
      vertex 0 30 38
    endloop
  endfacet
  facet normal -1 0 0
    outer loop
      vertex 0 0 1
      vertex 0 28 3
      vertex 0 30 1
    endloop
  endfacet
  facet normal -1 -0 0
    outer loop
      vertex 0 28 3
      vertex 0 0 1
      vertex 0 0 3
    endloop
  endfacet
  facet normal -1 -0 0
    outer loop
      vertex 0 30 38
      vertex 0 28 3
      vertex 0 28 38
    endloop
  endfacet
  facet normal 0 1 -0
    outer loop
      vertex 30 30 1
      vertex 0 30 38
      vertex 30 30 38
    endloop
  endfacet
  facet normal 0 1 0
    outer loop
      vertex 0 30 38
      vertex 30 30 1
      vertex 0 30 1
    endloop
  endfacet
  facet normal 0 -1 0
    outer loop
      vertex 0 28 3
      vertex 30 28 38
      vertex 0 28 38
    endloop
  endfacet
  facet normal 0 -1 -0
    outer loop
      vertex 30 28 38
      vertex 0 28 3
      vertex 30 28 3
    endloop
  endfacet
  facet normal 0 0 -1
    outer loop
      vertex 1 5 1
      vertex 5 25 1
      vertex 5 5 1
    endloop
  endfacet
  facet normal -0 0 -1
    outer loop
      vertex 5 25 1
      vertex 1 5 1
      vertex 1 25 1
    endloop
  endfacet
  facet normal 0 0 -1
    outer loop
      vertex 25 5 1
      vertex 29 25 1
      vertex 29 5 1
    endloop
  endfacet
  facet normal -0 0 -1
    outer loop
      vertex 29 25 1
      vertex 25 5 1
      vertex 25 25 1
    endloop
  endfacet
  facet normal 0 0 -1
    outer loop
      vertex 29 5 1
      vertex 30 0 1
      vertex 29 1 1
    endloop
  endfacet
  facet normal 0 0 -1
    outer loop
      vertex 30 0 1
      vertex 25 1 1
      vertex 29 1 1
    endloop
  endfacet
  facet normal 0 0 -1
    outer loop
      vertex 5 5 1
      vertex 25 5 1
      vertex 25 1 1
    endloop
  endfacet
  facet normal 0 0 -1
    outer loop
      vertex 25 5 1
      vertex 5 5 1
      vertex 25 25 1
    endloop
  endfacet
  facet normal 0 0 -1
    outer loop
      vertex 5 5 1
      vertex 25 1 1
      vertex 5 1 1
    endloop
  endfacet
  facet normal 0 0 -1
    outer loop
      vertex 30 0 1
      vertex 5 1 1
      vertex 25 1 1
    endloop
  endfacet
  facet normal 0 0 -1
    outer loop
      vertex 0 0 1
      vertex 5 1 1
      vertex 30 0 1
    endloop
  endfacet
  facet normal 0 0 -1
    outer loop
      vertex 0 0 1
      vertex 1 5 1
      vertex 1 1 1
    endloop
  endfacet
  facet normal -0 0 -1
    outer loop
      vertex 1 5 1
      vertex 0 0 1
      vertex 1 25 1
    endloop
  endfacet
  facet normal 0 0 -1
    outer loop
      vertex 0 30 1
      vertex 1 25 1
      vertex 0 0 1
    endloop
  endfacet
  facet normal -0 0 -1
    outer loop
      vertex 5 1 1
      vertex 0 0 1
      vertex 1 1 1
    endloop
  endfacet
  facet normal 0 0 -1
    outer loop
      vertex 30 0 1
      vertex 29 5 1
      vertex 30 30 1
    endloop
  endfacet
  facet normal 0 0 -1
    outer loop
      vertex 29 25 1
      vertex 30 30 1
      vertex 29 5 1
    endloop
  endfacet
  facet normal 0 0 -1
    outer loop
      vertex 29 29 1
      vertex 30 30 1
      vertex 29 25 1
    endloop
  endfacet
  facet normal 0 0 -1
    outer loop
      vertex 25 29 1
      vertex 30 30 1
      vertex 29 29 1
    endloop
  endfacet
  facet normal 0 0 -1
    outer loop
      vertex 5 25 1
      vertex 25 25 1
      vertex 5 5 1
    endloop
  endfacet
  facet normal 0 0 -1
    outer loop
      vertex 25 25 1
      vertex 5 25 1
      vertex 25 29 1
    endloop
  endfacet
  facet normal 0 0 -1
    outer loop
      vertex 5 29 1
      vertex 25 29 1
      vertex 5 25 1
    endloop
  endfacet
  facet normal 0 0 -1
    outer loop
      vertex 25 29 1
      vertex 5 29 1
      vertex 30 30 1
    endloop
  endfacet
  facet normal 0 0 -1
    outer loop
      vertex 0 30 1
      vertex 5 29 1
      vertex 1 29 1
    endloop
  endfacet
  facet normal 0 0 -1
    outer loop
      vertex 5 29 1
      vertex 0 30 1
      vertex 30 30 1
    endloop
  endfacet
  facet normal 0 0 -1
    outer loop
      vertex 1 25 1
      vertex 0 30 1
      vertex 1 29 1
    endloop
  endfacet
  facet normal 0 -1 0
    outer loop
      vertex 0 0 1
      vertex 30 0 3
      vertex 0 0 3
    endloop
  endfacet
  facet normal 0 -1 -0
    outer loop
      vertex 30 0 3
      vertex 0 0 1
      vertex 30 0 1
    endloop
  endfacet
  facet normal 1 -0 0
    outer loop
      vertex 5 1 1
      vertex 5 5 -24
      vertex 5 5 1
    endloop
  endfacet
  facet normal 1 0 0
    outer loop
      vertex 5 5 -24
      vertex 5 1 1
      vertex 5 1 -24
    endloop
  endfacet
  facet normal 0 0 -1
    outer loop
      vertex 1 1 -24
      vertex 5 5 -24
      vertex 5 1 -24
    endloop
  endfacet
  facet normal -0 0 -1
    outer loop
      vertex 5 5 -24
      vertex 1 1 -24
      vertex 1 5 -24
    endloop
  endfacet
  facet normal -1 0 0
    outer loop
      vertex 1 1 -24
      vertex 1 5 1
      vertex 1 5 -24
    endloop
  endfacet
  facet normal -1 -0 0
    outer loop
      vertex 1 5 1
      vertex 1 1 -24
      vertex 1 1 1
    endloop
  endfacet
  facet normal 0 1 -0
    outer loop
      vertex 5 5 -24
      vertex 1 5 1
      vertex 5 5 1
    endloop
  endfacet
  facet normal 0 1 0
    outer loop
      vertex 1 5 1
      vertex 5 5 -24
      vertex 1 5 -24
    endloop
  endfacet
  facet normal 0 -1 0
    outer loop
      vertex 1 1 -24
      vertex 5 1 1
      vertex 1 1 1
    endloop
  endfacet
  facet normal 0 -1 -0
    outer loop
      vertex 5 1 1
      vertex 1 1 -24
      vertex 5 1 -24
    endloop
  endfacet
  facet normal 1 -0 0
    outer loop
      vertex 29 1 1
      vertex 29 5 -24
      vertex 29 5 1
    endloop
  endfacet
  facet normal 1 0 0
    outer loop
      vertex 29 5 -24
      vertex 29 1 1
      vertex 29 1 -24
    endloop
  endfacet
  facet normal 0 0 -1
    outer loop
      vertex 25 1 -24
      vertex 29 5 -24
      vertex 29 1 -24
    endloop
  endfacet
  facet normal -0 0 -1
    outer loop
      vertex 29 5 -24
      vertex 25 1 -24
      vertex 25 5 -24
    endloop
  endfacet
  facet normal -1 0 0
    outer loop
      vertex 25 1 -24
      vertex 25 5 1
      vertex 25 5 -24
    endloop
  endfacet
  facet normal -1 -0 0
    outer loop
      vertex 25 5 1
      vertex 25 1 -24
      vertex 25 1 1
    endloop
  endfacet
  facet normal 0 1 -0
    outer loop
      vertex 29 5 -24
      vertex 25 5 1
      vertex 29 5 1
    endloop
  endfacet
  facet normal 0 1 0
    outer loop
      vertex 25 5 1
      vertex 29 5 -24
      vertex 25 5 -24
    endloop
  endfacet
  facet normal 0 -1 0
    outer loop
      vertex 25 1 -24
      vertex 29 1 1
      vertex 25 1 1
    endloop
  endfacet
  facet normal 0 -1 -0
    outer loop
      vertex 29 1 1
      vertex 25 1 -24
      vertex 29 1 -24
    endloop
  endfacet
  facet normal 1 -0 0
    outer loop
      vertex 5 25 1
      vertex 5 29 -24
      vertex 5 29 1
    endloop
  endfacet
  facet normal 1 0 0
    outer loop
      vertex 5 29 -24
      vertex 5 25 1
      vertex 5 25 -24
    endloop
  endfacet
  facet normal 0 0 -1
    outer loop
      vertex 1 25 -24
      vertex 5 29 -24
      vertex 5 25 -24
    endloop
  endfacet
  facet normal -0 0 -1
    outer loop
      vertex 5 29 -24
      vertex 1 25 -24
      vertex 1 29 -24
    endloop
  endfacet
  facet normal -1 0 0
    outer loop
      vertex 1 25 -24
      vertex 1 29 1
      vertex 1 29 -24
    endloop
  endfacet
  facet normal -1 -0 0
    outer loop
      vertex 1 29 1
      vertex 1 25 -24
      vertex 1 25 1
    endloop
  endfacet
  facet normal 0 1 -0
    outer loop
      vertex 5 29 -24
      vertex 1 29 1
      vertex 5 29 1
    endloop
  endfacet
  facet normal 0 1 0
    outer loop
      vertex 1 29 1
      vertex 5 29 -24
      vertex 1 29 -24
    endloop
  endfacet
  facet normal 0 -1 0
    outer loop
      vertex 1 25 -24
      vertex 5 25 1
      vertex 1 25 1
    endloop
  endfacet
  facet normal 0 -1 -0
    outer loop
      vertex 5 25 1
      vertex 1 25 -24
      vertex 5 25 -24
    endloop
  endfacet
  facet normal 1 -0 0
    outer loop
      vertex 29 25 1
      vertex 29 29 -24
      vertex 29 29 1
    endloop
  endfacet
  facet normal 1 0 0
    outer loop
      vertex 29 29 -24
      vertex 29 25 1
      vertex 29 25 -24
    endloop
  endfacet
  facet normal 0 0 -1
    outer loop
      vertex 25 25 -24
      vertex 29 29 -24
      vertex 29 25 -24
    endloop
  endfacet
  facet normal -0 0 -1
    outer loop
      vertex 29 29 -24
      vertex 25 25 -24
      vertex 25 29 -24
    endloop
  endfacet
  facet normal -1 0 0
    outer loop
      vertex 25 25 -24
      vertex 25 29 1
      vertex 25 29 -24
    endloop
  endfacet
  facet normal -1 -0 0
    outer loop
      vertex 25 29 1
      vertex 25 25 -24
      vertex 25 25 1
    endloop
  endfacet
  facet normal 0 1 -0
    outer loop
      vertex 29 29 -24
      vertex 25 29 1
      vertex 29 29 1
    endloop
  endfacet
  facet normal 0 1 0
    outer loop
      vertex 25 29 1
      vertex 29 29 -24
      vertex 25 29 -24
    endloop
  endfacet
  facet normal 0 -1 0
    outer loop
      vertex 25 25 -24
      vertex 29 25 1
      vertex 25 25 1
    endloop
  endfacet
  facet normal 0 -1 -0
    outer loop
      vertex 29 25 1
      vertex 25 25 -24
      vertex 29 25 -24
    endloop
  endfacet
endsolid OpenSCAD_Model
