solid OpenSCAD_Model
  facet normal 1 -0 0
    outer loop
      vertex 20 0 20
      vertex 20 20 0
      vertex 20 20 20
    endloop
  endfacet
  facet normal 1 0 0
    outer loop
      vertex 20 20 0
      vertex 20 0 20
      vertex 20 0 0
    endloop
  endfacet
  facet normal 0 0 1
    outer loop
      vertex 20 20 20
      vertex 15 10 20
      vertex 20 0 20
    endloop
  endfacet
  facet normal 0 0 1
    outer loop
      vertex 20 20 20
      vertex 14.6194 11.9134 20
      vertex 15 10 20
    endloop
  endfacet
  facet normal 0 0 1
    outer loop
      vertex 20 20 20
      vertex 13.5355 13.5355 20
      vertex 14.6194 11.9134 20
    endloop
  endfacet
  facet normal 0 0 1
    outer loop
      vertex 20 20 20
      vertex 11.9134 14.6194 20
      vertex 13.5355 13.5355 20
    endloop
  endfacet
  facet normal 0 0 1
    outer loop
      vertex 20 20 20
      vertex 10 15 20
      vertex 11.9134 14.6194 20
    endloop
  endfacet
  facet normal -0 0 1
    outer loop
      vertex 0 20 20
      vertex 10 15 20
      vertex 20 20 20
    endloop
  endfacet
  facet normal 0 0 1
    outer loop
      vertex 5.3806 11.9134 20
      vertex 0 20 20
      vertex 5 10 20
    endloop
  endfacet
  facet normal 0 0 1
    outer loop
      vertex 6.46447 13.5355 20
      vertex 0 20 20
      vertex 5.3806 11.9134 20
    endloop
  endfacet
  facet normal 0 0 1
    outer loop
      vertex 8.08658 14.6194 20
      vertex 0 20 20
      vertex 6.46447 13.5355 20
    endloop
  endfacet
  facet normal 0 0 1
    outer loop
      vertex 10 15 20
      vertex 0 20 20
      vertex 8.08658 14.6194 20
    endloop
  endfacet
  facet normal -0 0 1
    outer loop
      vertex 14.6194 8.08658 20
      vertex 20 0 20
      vertex 15 10 20
    endloop
  endfacet
  facet normal -0 0 1
    outer loop
      vertex 13.5355 6.46447 20
      vertex 20 0 20
      vertex 14.6194 8.08658 20
    endloop
  endfacet
  facet normal -0 0 1
    outer loop
      vertex 11.9134 5.3806 20
      vertex 20 0 20
      vertex 13.5355 6.46447 20
    endloop
  endfacet
  facet normal -0 0 1
    outer loop
      vertex 10 5 20
      vertex 20 0 20
      vertex 11.9134 5.3806 20
    endloop
  endfacet
  facet normal 0 0 1
    outer loop
      vertex 0 0 20
      vertex 10 5 20
      vertex 8.08658 5.3806 20
    endloop
  endfacet
  facet normal 0 0 1
    outer loop
      vertex 0 0 20
      vertex 5 10 20
      vertex 0 20 20
    endloop
  endfacet
  facet normal 0 0 1
    outer loop
      vertex 10 5 20
      vertex 0 0 20
      vertex 20 0 20
    endloop
  endfacet
  facet normal 0 0 1
    outer loop
      vertex 6.46447 6.46447 20
      vertex 0 0 20
      vertex 8.08658 5.3806 20
    endloop
  endfacet
  facet normal 0 0 1
    outer loop
      vertex 5.3806 8.08658 20
      vertex 0 0 20
      vertex 6.46447 6.46447 20
    endloop
  endfacet
  facet normal 0 0 1
    outer loop
      vertex 5 10 20
      vertex 0 0 20
      vertex 5.3806 8.08658 20
    endloop
  endfacet
  facet normal 0 0 -1
    outer loop
      vertex 20 0 0
      vertex 15 10 0
      vertex 20 20 0
    endloop
  endfacet
  facet normal 0 0 -1
    outer loop
      vertex 20 0 0
      vertex 14.6194 8.08658 0
      vertex 15 10 0
    endloop
  endfacet
  facet normal 0 0 -1
    outer loop
      vertex 20 0 0
      vertex 13.5355 6.46447 0
      vertex 14.6194 8.08658 0
    endloop
  endfacet
  facet normal 0 0 -1
    outer loop
      vertex 20 0 0
      vertex 11.9134 5.3806 0
      vertex 13.5355 6.46447 0
    endloop
  endfacet
  facet normal 0 0 -1
    outer loop
      vertex 20 0 0
      vertex 10 5 0
      vertex 11.9134 5.3806 0
    endloop
  endfacet
  facet normal 0 0 -1
    outer loop
      vertex 0 0 0
      vertex 10 5 0
      vertex 20 0 0
    endloop
  endfacet
  facet normal -0 0 -1
    outer loop
      vertex 5.3806 8.08658 0
      vertex 0 0 0
      vertex 5 10 0
    endloop
  endfacet
  facet normal -0 0 -1
    outer loop
      vertex 6.46447 6.46447 0
      vertex 0 0 0
      vertex 5.3806 8.08658 0
    endloop
  endfacet
  facet normal -0 0 -1
    outer loop
      vertex 8.08658 5.3806 0
      vertex 0 0 0
      vertex 6.46447 6.46447 0
    endloop
  endfacet
  facet normal -0 0 -1
    outer loop
      vertex 10 5 0
      vertex 0 0 0
      vertex 8.08658 5.3806 0
    endloop
  endfacet
  facet normal 0 0 -1
    outer loop
      vertex 14.6194 11.9134 0
      vertex 20 20 0
      vertex 15 10 0
    endloop
  endfacet
  facet normal 0 0 -1
    outer loop
      vertex 13.5355 13.5355 0
      vertex 20 20 0
      vertex 14.6194 11.9134 0
    endloop
  endfacet
  facet normal 0 0 -1
    outer loop
      vertex 11.9134 14.6194 0
      vertex 20 20 0
      vertex 13.5355 13.5355 0
    endloop
  endfacet
  facet normal 0 0 -1
    outer loop
      vertex 10 15 0
      vertex 20 20 0
      vertex 11.9134 14.6194 0
    endloop
  endfacet
  facet normal 0 0 -1
    outer loop
      vertex 0 20 0
      vertex 10 15 0
      vertex 8.08658 14.6194 0
    endloop
  endfacet
  facet normal 0 0 -1
    outer loop
      vertex 0 20 0
      vertex 5 10 0
      vertex 0 0 0
    endloop
  endfacet
  facet normal 0 0 -1
    outer loop
      vertex 10 15 0
      vertex 0 20 0
      vertex 20 20 0
    endloop
  endfacet
  facet normal 0 0 -1
    outer loop
      vertex 6.46447 13.5355 0
      vertex 0 20 0
      vertex 8.08658 14.6194 0
    endloop
  endfacet
  facet normal 0 0 -1
    outer loop
      vertex 5.3806 11.9134 0
      vertex 0 20 0
      vertex 6.46447 13.5355 0
    endloop
  endfacet
  facet normal 0 0 -1
    outer loop
      vertex 5 10 0
      vertex 0 20 0
      vertex 5.3806 11.9134 0
    endloop
  endfacet
  facet normal -1 0 0
    outer loop
      vertex 0 0 0
      vertex 0 20 20
      vertex 0 20 0
    endloop
  endfacet
  facet normal -1 -0 0
    outer loop
      vertex 0 20 20
      vertex 0 0 0
      vertex 0 0 20
    endloop
  endfacet
  facet normal 0 1 -0
    outer loop
      vertex 20 20 0
      vertex 0 20 20
      vertex 20 20 20
    endloop
  endfacet
  facet normal 0 1 0
    outer loop
      vertex 0 20 20
      vertex 20 20 0
      vertex 0 20 0
    endloop
  endfacet
  facet normal 0 -1 0
    outer loop
      vertex 0 0 0
      vertex 20 0 20
      vertex 0 0 20
    endloop
  endfacet
  facet normal 0 -1 -0
    outer loop
      vertex 20 0 20
      vertex 0 0 0
      vertex 20 0 0
    endloop
  endfacet
  facet normal -0.831458 -0.555587 0
    outer loop
      vertex 14.6194 11.9134 0
      vertex 13.5355 13.5355 20
      vertex 13.5355 13.5355 0
    endloop
  endfacet
  facet normal -0.831458 -0.555587 0
    outer loop
      vertex 13.5355 13.5355 20
      vertex 14.6194 11.9134 0
      vertex 14.6194 11.9134 20
    endloop
  endfacet
  facet normal -0.980785 -0.195091 0
    outer loop
      vertex 15 10 0
      vertex 14.6194 11.9134 20
      vertex 14.6194 11.9134 0
    endloop
  endfacet
  facet normal -0.980785 -0.195091 0
    outer loop
      vertex 14.6194 11.9134 20
      vertex 15 10 0
      vertex 15 10 20
    endloop
  endfacet
  facet normal -0.555587 -0.831458 0
    outer loop
      vertex 11.9134 14.6194 0
      vertex 13.5355 13.5355 20
      vertex 11.9134 14.6194 20
    endloop
  endfacet
  facet normal -0.555587 -0.831458 -0
    outer loop
      vertex 13.5355 13.5355 20
      vertex 11.9134 14.6194 0
      vertex 13.5355 13.5355 0
    endloop
  endfacet
  facet normal -0.83146 0.555585 0
    outer loop
      vertex 13.5355 6.46447 0
      vertex 14.6194 8.08658 20
      vertex 14.6194 8.08658 0
    endloop
  endfacet
  facet normal -0.83146 0.555585 0
    outer loop
      vertex 14.6194 8.08658 20
      vertex 13.5355 6.46447 0
      vertex 13.5355 6.46447 20
    endloop
  endfacet
  facet normal 0.195089 -0.980786 0
    outer loop
      vertex 8.08658 14.6194 0
      vertex 10 15 20
      vertex 8.08658 14.6194 20
    endloop
  endfacet
  facet normal 0.195089 -0.980786 0
    outer loop
      vertex 10 15 20
      vertex 8.08658 14.6194 0
      vertex 10 15 0
    endloop
  endfacet
  facet normal 0.831465 -0.555576 0
    outer loop
      vertex 5.3806 11.9134 20
      vertex 6.46447 13.5355 0
      vertex 6.46447 13.5355 20
    endloop
  endfacet
  facet normal 0.831465 -0.555576 0
    outer loop
      vertex 6.46447 13.5355 0
      vertex 5.3806 11.9134 20
      vertex 5.3806 11.9134 0
    endloop
  endfacet
  facet normal 0.980785 -0.195091 0
    outer loop
      vertex 5 10 20
      vertex 5.3806 11.9134 0
      vertex 5.3806 11.9134 20
    endloop
  endfacet
  facet normal 0.980785 -0.195091 0
    outer loop
      vertex 5.3806 11.9134 0
      vertex 5 10 20
      vertex 5 10 0
    endloop
  endfacet
  facet normal -0.195091 0.980785 0
    outer loop
      vertex 11.9134 5.3806 0
      vertex 10 5 20
      vertex 11.9134 5.3806 20
    endloop
  endfacet
  facet normal -0.195091 0.980785 0
    outer loop
      vertex 10 5 20
      vertex 11.9134 5.3806 0
      vertex 10 5 0
    endloop
  endfacet
  facet normal 0.195089 0.980786 -0
    outer loop
      vertex 10 5 0
      vertex 8.08658 5.3806 20
      vertex 10 5 20
    endloop
  endfacet
  facet normal 0.195089 0.980786 0
    outer loop
      vertex 8.08658 5.3806 20
      vertex 10 5 0
      vertex 8.08658 5.3806 0
    endloop
  endfacet
  facet normal 0.980786 0.195089 0
    outer loop
      vertex 5.3806 8.08658 20
      vertex 5 10 0
      vertex 5 10 20
    endloop
  endfacet
  facet normal 0.980786 0.195089 0
    outer loop
      vertex 5 10 0
      vertex 5.3806 8.08658 20
      vertex 5.3806 8.08658 0
    endloop
  endfacet
  facet normal -0.195091 -0.980785 0
    outer loop
      vertex 10 15 0
      vertex 11.9134 14.6194 20
      vertex 10 15 20
    endloop
  endfacet
  facet normal -0.195091 -0.980785 -0
    outer loop
      vertex 11.9134 14.6194 20
      vertex 10 15 0
      vertex 11.9134 14.6194 0
    endloop
  endfacet
  facet normal -0.980786 0.195089 0
    outer loop
      vertex 14.6194 8.08658 0
      vertex 15 10 20
      vertex 15 10 0
    endloop
  endfacet
  facet normal -0.980786 0.195089 0
    outer loop
      vertex 15 10 20
      vertex 14.6194 8.08658 0
      vertex 14.6194 8.08658 20
    endloop
  endfacet
  facet normal -0.555576 0.831465 0
    outer loop
      vertex 13.5355 6.46447 0
      vertex 11.9134 5.3806 20
      vertex 13.5355 6.46447 20
    endloop
  endfacet
  facet normal -0.555576 0.831465 0
    outer loop
      vertex 11.9134 5.3806 20
      vertex 13.5355 6.46447 0
      vertex 11.9134 5.3806 0
    endloop
  endfacet
  facet normal 0.831467 0.555574 0
    outer loop
      vertex 6.46447 6.46447 20
      vertex 5.3806 8.08658 0
      vertex 5.3806 8.08658 20
    endloop
  endfacet
  facet normal 0.831467 0.555574 0
    outer loop
      vertex 5.3806 8.08658 0
      vertex 6.46447 6.46447 20
      vertex 6.46447 6.46447 0
    endloop
  endfacet
  facet normal 0.555585 -0.83146 0
    outer loop
      vertex 6.46447 13.5355 0
      vertex 8.08658 14.6194 20
      vertex 6.46447 13.5355 20
    endloop
  endfacet
  facet normal 0.555585 -0.83146 0
    outer loop
      vertex 8.08658 14.6194 20
      vertex 6.46447 13.5355 0
      vertex 8.08658 14.6194 0
    endloop
  endfacet
  facet normal 0.555574 0.831467 -0
    outer loop
      vertex 8.08658 5.3806 0
      vertex 6.46447 6.46447 20
      vertex 8.08658 5.3806 20
    endloop
  endfacet
  facet normal 0.555574 0.831467 0
    outer loop
      vertex 6.46447 6.46447 20
      vertex 8.08658 5.3806 0
      vertex 6.46447 6.46447 0
    endloop
  endfacet
endsolid OpenSCAD_Model
